solid blockTest
   facet normal 0.000000e+000 1.000000e+000 0.000000e+000
      outer loop
         vertex 2.000000e+000 2.000000e+000 0.000000e+000
         vertex 1.124345e+000 2.000000e+000 5.157084e-001
         vertex 1.240877e+000 2.000000e+000 5.618466e-001
      endloop
   endfacet
   facet normal 0.000000e+000 1.000000e+000 0.000000e+000
      outer loop
         vertex 1.000000e+000 2.000000e+000 2.000000e+000
         vertex 1.000000e+000 2.000000e+000 1.500000e+000
         vertex 9.373333e-001 2.000000e+000 1.496057e+000
      endloop
   endfacet
   facet normal 0.000000e+000 1.000000e+000 0.000000e+000
      outer loop
         vertex 1.240877e+000 2.000000e+000 5.618466e-001
         vertex 1.342274e+000 2.000000e+000 6.355157e-001
         vertex 2.000000e+000 2.000000e+000 0.000000e+000
      endloop
   endfacet
   facet normal 0.000000e+000 1.000000e+000 0.000000e+000
      outer loop
         vertex 2.000000e+000 2.000000e+000 0.000000e+000
         vertex 1.342274e+000 2.000000e+000 6.355157e-001
         vertex 1.422164e+000 2.000000e+000 7.320866e-001
      endloop
   endfacet
   facet normal 0.000000e+000 1.000000e+000 0.000000e+000
      outer loop
         vertex 2.000000e+000 2.000000e+000 0.000000e+000
         vertex 1.422164e+000 2.000000e+000 7.320866e-001
         vertex 2.000000e+000 2.000000e+000 1.000000e+000
      endloop
   endfacet
   facet normal 0.000000e+000 1.000000e+000 0.000000e+000
      outer loop
         vertex 1.000000e+000 2.000000e+000 2.000000e+000
         vertex 9.373333e-001 2.000000e+000 1.496057e+000
         vertex 0.000000e+000 2.000000e+000 2.000000e+000
      endloop
   endfacet
   facet normal 0.000000e+000 1.000000e+000 0.000000e+000
      outer loop
         vertex 9.373333e-001 2.000000e+000 1.496057e+000
         vertex 8.159377e-001 2.000000e+000 1.464888e+000
         vertex 0.000000e+000 2.000000e+000 2.000000e+000
      endloop
   endfacet
   facet normal 0.000000e+000 1.000000e+000 0.000000e+000
      outer loop
         vertex 0.000000e+000 2.000000e+000 2.000000e+000
         vertex 8.159377e-001 2.000000e+000 1.464888e+000
         vertex 7.061074e-001 2.000000e+000 1.404509e+000
      endloop
   endfacet
   facet normal 0.000000e+000 1.000000e+000 0.000000e+000
      outer loop
         vertex 0.000000e+000 2.000000e+000 2.000000e+000
         vertex 7.061074e-001 2.000000e+000 1.404508e+000
         vertex 6.147434e-001 2.000000e+000 1.318712e+000
      endloop
   endfacet
   facet normal 0.000000e+000 1.000000e+000 0.000000e+000
      outer loop
         vertex 6.577264e-001 2.000000e+000 6.355157e-001
         vertex 0.000000e+000 2.000000e+000 0.000000e+000
         vertex 5.778360e-001 2.000000e+000 7.320866e-001
      endloop
   endfacet
   facet normal 0.000000e+000 1.000000e+000 0.000000e+000
      outer loop
         vertex 5.778360e-001 2.000000e+000 7.320866e-001
         vertex 0.000000e+000 2.000000e+000 0.000000e+000
         vertex 5.244718e-001 2.000000e+000 8.454914e-001
      endloop
   endfacet
   facet normal 0.000000e+000 1.000000e+000 0.000000e+000
      outer loop
         vertex 1.422164e+000 2.000000e+000 7.320866e-001
         vertex 1.475528e+000 2.000000e+000 8.454915e-001
         vertex 2.000000e+000 2.000000e+000 1.000000e+000
      endloop
   endfacet
   facet normal 0.000000e+000 1.000000e+000 0.000000e+000
      outer loop
         vertex 2.000000e+000 2.000000e+000 1.000000e+000
         vertex 1.475528e+000 2.000000e+000 8.454915e-001
         vertex 1.499013e+000 2.000000e+000 9.686047e-001
      endloop
   endfacet
   facet normal 0.000000e+000 1.000000e+000 0.000000e+000
      outer loop
         vertex 2.000000e+000 2.000000e+000 1.000000e+000
         vertex 1.499013e+000 2.000000e+000 9.686047e-001
         vertex 1.984808e+000 2.000000e+000 1.173648e+000
      endloop
   endfacet
   facet normal 0.000000e+000 1.000000e+000 0.000000e+000
      outer loop
         vertex 1.984808e+000 2.000000e+000 1.173648e+000
         vertex 1.499013e+000 2.000000e+000 9.686047e-001
         vertex 1.491144e+000 2.000000e+000 1.093691e+000
      endloop
   endfacet
   facet normal 0.000000e+000 1.000000e+000 0.000000e+000
      outer loop
         vertex 1.984808e+000 2.000000e+000 1.173648e+000
         vertex 1.491144e+000 2.000000e+000 1.093691e+000
         vertex 1.939693e+000 2.000000e+000 1.342020e+000
      endloop
   endfacet
   facet normal 0.000000e+000 1.000000e+000 0.000000e+000
      outer loop
         vertex 1.939693e+000 2.000000e+000 1.342020e+000
         vertex 1.491144e+000 2.000000e+000 1.093691e+000
         vertex 1.452414e+000 2.000000e+000 1.212890e+000
      endloop
   endfacet
   facet normal 0.000000e+000 1.000000e+000 0.000000e+000
      outer loop
         vertex 1.184062e+000 2.000000e+000 1.464888e+000
         vertex 1.500000e+000 2.000000e+000 1.866025e+000
         vertex 1.293893e+000 2.000000e+000 1.404509e+000
      endloop
   endfacet
   facet normal 0.000000e+000 1.000000e+000 0.000000e+000
      outer loop
         vertex 1.293893e+000 2.000000e+000 1.404508e+000
         vertex 1.500000e+000 2.000000e+000 1.866025e+000
         vertex 1.642788e+000 2.000000e+000 1.766044e+000
      endloop
   endfacet
   facet normal 0.000000e+000 1.000000e+000 0.000000e+000
      outer loop
         vertex 1.293893e+000 2.000000e+000 1.404508e+000
         vertex 1.642788e+000 2.000000e+000 1.766044e+000
         vertex 1.385257e+000 2.000000e+000 1.318712e+000
      endloop
   endfacet
   facet normal 0.000000e+000 1.000000e+000 0.000000e+000
      outer loop
         vertex 1.385257e+000 2.000000e+000 1.318712e+000
         vertex 1.642788e+000 2.000000e+000 1.766044e+000
         vertex 1.766044e+000 2.000000e+000 1.642788e+000
      endloop
   endfacet
   facet normal 0.000000e+000 1.000000e+000 0.000000e+000
      outer loop
         vertex 1.385257e+000 2.000000e+000 1.318712e+000
         vertex 1.766044e+000 2.000000e+000 1.642788e+000
         vertex 1.452414e+000 2.000000e+000 1.212890e+000
      endloop
   endfacet
   facet normal 0.000000e+000 1.000000e+000 0.000000e+000
      outer loop
         vertex 1.452414e+000 2.000000e+000 1.212890e+000
         vertex 1.766044e+000 2.000000e+000 1.642788e+000
         vertex 1.866025e+000 2.000000e+000 1.500000e+000
      endloop
   endfacet
   facet normal 0.000000e+000 1.000000e+000 0.000000e+000
      outer loop
         vertex 1.452414e+000 2.000000e+000 1.212890e+000
         vertex 1.866025e+000 2.000000e+000 1.500000e+000
         vertex 1.939693e+000 2.000000e+000 1.342020e+000
      endloop
   endfacet
   facet normal 0.000000e+000 1.000000e+000 0.000000e+000
      outer loop
         vertex 1.000000e+000 2.000000e+000 1.500000e+000
         vertex 1.000000e+000 2.000000e+000 2.000000e+000
         vertex 1.062667e+000 2.000000e+000 1.496057e+000
      endloop
   endfacet
   facet normal 0.000000e+000 1.000000e+000 0.000000e+000
      outer loop
         vertex 1.062667e+000 2.000000e+000 1.496057e+000
         vertex 1.000000e+000 2.000000e+000 2.000000e+000
         vertex 1.173648e+000 2.000000e+000 1.984808e+000
      endloop
   endfacet
   facet normal 0.000000e+000 1.000000e+000 0.000000e+000
      outer loop
         vertex 1.062667e+000 2.000000e+000 1.496057e+000
         vertex 1.173648e+000 2.000000e+000 1.984808e+000
         vertex 1.184062e+000 2.000000e+000 1.464888e+000
      endloop
   endfacet
   facet normal 0.000000e+000 1.000000e+000 0.000000e+000
      outer loop
         vertex 1.184062e+000 2.000000e+000 1.464888e+000
         vertex 1.173648e+000 2.000000e+000 1.984808e+000
         vertex 1.342020e+000 2.000000e+000 1.939693e+000
      endloop
   endfacet
   facet normal 0.000000e+000 1.000000e+000 0.000000e+000
      outer loop
         vertex 1.184062e+000 2.000000e+000 1.464888e+000
         vertex 1.342020e+000 2.000000e+000 1.939693e+000
         vertex 1.500000e+000 2.000000e+000 1.866025e+000
      endloop
   endfacet
   facet normal 0.000000e+000 1.000000e+000 0.000000e+000
      outer loop
         vertex 6.147434e-001 2.000000e+000 1.318712e+000
         vertex 5.475865e-001 2.000000e+000 1.212890e+000
         vertex 0.000000e+000 2.000000e+000 2.000000e+000
      endloop
   endfacet
   facet normal 0.000000e+000 1.000000e+000 0.000000e+000
      outer loop
         vertex 0.000000e+000 2.000000e+000 2.000000e+000
         vertex 5.475865e-001 2.000000e+000 1.212890e+000
         vertex 5.088564e-001 2.000000e+000 1.093691e+000
      endloop
   endfacet
   facet normal 0.000000e+000 1.000000e+000 0.000000e+000
      outer loop
         vertex 0.000000e+000 2.000000e+000 2.000000e+000
         vertex 5.088564e-001 2.000000e+000 1.093691e+000
         vertex 0.000000e+000 2.000000e+000 0.000000e+000
      endloop
   endfacet
   facet normal 0.000000e+000 1.000000e+000 0.000000e+000
      outer loop
         vertex 0.000000e+000 2.000000e+000 0.000000e+000
         vertex 5.088564e-001 2.000000e+000 1.093691e+000
         vertex 5.009866e-001 2.000000e+000 9.686047e-001
      endloop
   endfacet
   facet normal 0.000000e+000 1.000000e+000 0.000000e+000
      outer loop
         vertex 0.000000e+000 2.000000e+000 0.000000e+000
         vertex 5.009866e-001 2.000000e+000 9.686047e-001
         vertex 5.244718e-001 2.000000e+000 8.454914e-001
      endloop
   endfacet
   facet normal 0.000000e+000 1.000000e+000 0.000000e+000
      outer loop
         vertex 6.577264e-001 2.000000e+000 6.355157e-001
         vertex 7.591231e-001 2.000000e+000 5.618466e-001
         vertex 0.000000e+000 2.000000e+000 0.000000e+000
      endloop
   endfacet
   facet normal 0.000000e+000 1.000000e+000 0.000000e+000
      outer loop
         vertex 0.000000e+000 2.000000e+000 0.000000e+000
         vertex 7.591231e-001 2.000000e+000 5.618466e-001
         vertex 8.756550e-001 2.000000e+000 5.157084e-001
      endloop
   endfacet
   facet normal 0.000000e+000 1.000000e+000 0.000000e+000
      outer loop
         vertex 0.000000e+000 2.000000e+000 0.000000e+000
         vertex 8.756550e-001 2.000000e+000 5.157084e-001
         vertex 2.000000e+000 2.000000e+000 0.000000e+000
      endloop
   endfacet
   facet normal 0.000000e+000 1.000000e+000 0.000000e+000
      outer loop
         vertex 2.000000e+000 2.000000e+000 0.000000e+000
         vertex 8.756550e-001 2.000000e+000 5.157084e-001
         vertex 1.000000e+000 2.000000e+000 5.000000e-001
      endloop
   endfacet
   facet normal 0.000000e+000 1.000000e+000 0.000000e+000
      outer loop
         vertex 2.000000e+000 2.000000e+000 0.000000e+000
         vertex 1.000000e+000 2.000000e+000 5.000000e-001
         vertex 1.124345e+000 2.000000e+000 5.157084e-001
      endloop
   endfacet
   facet normal 0.000000e+000 -1.000000e+000 0.000000e+000
      outer loop
         vertex 2.000000e+000 0.000000e+000 0.000000e+000
         vertex 1.342274e+000 0.000000e+000 6.355157e-001
         vertex 1.240877e+000 0.000000e+000 5.618466e-001
      endloop
   endfacet
   facet normal 0.000000e+000 -1.000000e+000 0.000000e+000
      outer loop
         vertex 2.000000e+000 0.000000e+000 1.000000e+000
         vertex 1.984808e+000 0.000000e+000 1.173648e+000
         vertex 1.491144e+000 0.000000e+000 1.093691e+000
      endloop
   endfacet
   facet normal 0.000000e+000 -1.000000e+000 0.000000e+000
      outer loop
         vertex 1.491144e+000 0.000000e+000 1.093691e+000
         vertex 1.984808e+000 0.000000e+000 1.173648e+000
         vertex 1.939693e+000 0.000000e+000 1.342020e+000
      endloop
   endfacet
   facet normal 0.000000e+000 -1.000000e+000 0.000000e+000
      outer loop
         vertex 1.491144e+000 0.000000e+000 1.093691e+000
         vertex 1.939693e+000 0.000000e+000 1.342020e+000
         vertex 1.452414e+000 0.000000e+000 1.212890e+000
      endloop
   endfacet
   facet normal 0.000000e+000 -1.000000e+000 0.000000e+000
      outer loop
         vertex 1.452414e+000 0.000000e+000 1.212890e+000
         vertex 1.939693e+000 0.000000e+000 1.342020e+000
         vertex 1.866025e+000 0.000000e+000 1.500000e+000
      endloop
   endfacet
   facet normal 0.000000e+000 -1.000000e+000 0.000000e+000
      outer loop
         vertex 1.452414e+000 0.000000e+000 1.212890e+000
         vertex 1.866025e+000 0.000000e+000 1.500000e+000
         vertex 1.385257e+000 0.000000e+000 1.318712e+000
      endloop
   endfacet
   facet normal 0.000000e+000 -1.000000e+000 0.000000e+000
      outer loop
         vertex 1.385257e+000 0.000000e+000 1.318712e+000
         vertex 1.866025e+000 0.000000e+000 1.500000e+000
         vertex 1.766044e+000 0.000000e+000 1.642788e+000
      endloop
   endfacet
   facet normal 0.000000e+000 -1.000000e+000 0.000000e+000
      outer loop
         vertex 1.385257e+000 0.000000e+000 1.318712e+000
         vertex 1.766044e+000 0.000000e+000 1.642788e+000
         vertex 1.293893e+000 0.000000e+000 1.404509e+000
      endloop
   endfacet
   facet normal 0.000000e+000 -1.000000e+000 0.000000e+000
      outer loop
         vertex 1.240877e+000 0.000000e+000 5.618466e-001
         vertex 1.124345e+000 0.000000e+000 5.157084e-001
         vertex 2.000000e+000 0.000000e+000 0.000000e+000
      endloop
   endfacet
   facet normal 0.000000e+000 -1.000000e+000 0.000000e+000
      outer loop
         vertex 2.000000e+000 0.000000e+000 0.000000e+000
         vertex 1.124345e+000 0.000000e+000 5.157084e-001
         vertex 1.000000e+000 0.000000e+000 5.000000e-001
      endloop
   endfacet
   facet normal 0.000000e+000 -1.000000e+000 0.000000e+000
      outer loop
         vertex 2.000000e+000 0.000000e+000 0.000000e+000
         vertex 1.000000e+000 0.000000e+000 5.000000e-001
         vertex 0.000000e+000 0.000000e+000 0.000000e+000
      endloop
   endfacet
   facet normal 0.000000e+000 -1.000000e+000 0.000000e+000
      outer loop
         vertex 0.000000e+000 0.000000e+000 0.000000e+000
         vertex 1.000000e+000 0.000000e+000 5.000000e-001
         vertex 8.756550e-001 0.000000e+000 5.157084e-001
      endloop
   endfacet
   facet normal 0.000000e+000 -1.000000e+000 0.000000e+000
      outer loop
         vertex 8.756550e-001 0.000000e+000 5.157084e-001
         vertex 7.591231e-001 0.000000e+000 5.618466e-001
         vertex 0.000000e+000 0.000000e+000 0.000000e+000
      endloop
   endfacet
   facet normal 0.000000e+000 -1.000000e+000 0.000000e+000
      outer loop
         vertex 0.000000e+000 0.000000e+000 0.000000e+000
         vertex 7.591231e-001 0.000000e+000 5.618466e-001
         vertex 6.577264e-001 0.000000e+000 6.355157e-001
      endloop
   endfacet
   facet normal 0.000000e+000 -1.000000e+000 0.000000e+000
      outer loop
         vertex 0.000000e+000 0.000000e+000 0.000000e+000
         vertex 6.577264e-001 0.000000e+000 6.355157e-001
         vertex 5.778360e-001 0.000000e+000 7.320866e-001
      endloop
   endfacet
   facet normal 0.000000e+000 -1.000000e+000 0.000000e+000
      outer loop
         vertex 1.491144e+000 0.000000e+000 1.093691e+000
         vertex 1.499013e+000 0.000000e+000 9.686047e-001
         vertex 2.000000e+000 0.000000e+000 1.000000e+000
      endloop
   endfacet
   facet normal 0.000000e+000 -1.000000e+000 0.000000e+000
      outer loop
         vertex 2.000000e+000 0.000000e+000 1.000000e+000
         vertex 1.499013e+000 0.000000e+000 9.686047e-001
         vertex 1.475528e+000 0.000000e+000 8.454914e-001
      endloop
   endfacet
   facet normal 0.000000e+000 -1.000000e+000 0.000000e+000
      outer loop
         vertex 2.000000e+000 0.000000e+000 1.000000e+000
         vertex 1.475528e+000 0.000000e+000 8.454915e-001
         vertex 2.000000e+000 0.000000e+000 0.000000e+000
      endloop
   endfacet
   facet normal 0.000000e+000 -1.000000e+000 0.000000e+000
      outer loop
         vertex 2.000000e+000 0.000000e+000 0.000000e+000
         vertex 1.475528e+000 0.000000e+000 8.454915e-001
         vertex 1.422164e+000 0.000000e+000 7.320866e-001
      endloop
   endfacet
   facet normal 0.000000e+000 -1.000000e+000 0.000000e+000
      outer loop
         vertex 2.000000e+000 0.000000e+000 0.000000e+000
         vertex 1.422164e+000 0.000000e+000 7.320866e-001
         vertex 1.342274e+000 0.000000e+000 6.355157e-001
      endloop
   endfacet
   facet normal 0.000000e+000 -1.000000e+000 0.000000e+000
      outer loop
         vertex 5.778360e-001 0.000000e+000 7.320866e-001
         vertex 5.244718e-001 0.000000e+000 8.454915e-001
         vertex 0.000000e+000 0.000000e+000 0.000000e+000
      endloop
   endfacet
   facet normal 0.000000e+000 -1.000000e+000 0.000000e+000
      outer loop
         vertex 0.000000e+000 0.000000e+000 0.000000e+000
         vertex 5.244718e-001 0.000000e+000 8.454915e-001
         vertex 5.009866e-001 0.000000e+000 9.686047e-001
      endloop
   endfacet
   facet normal 0.000000e+000 -1.000000e+000 0.000000e+000
      outer loop
         vertex 0.000000e+000 0.000000e+000 0.000000e+000
         vertex 5.009866e-001 0.000000e+000 9.686047e-001
         vertex 0.000000e+000 0.000000e+000 2.000000e+000
      endloop
   endfacet
   facet normal 0.000000e+000 -1.000000e+000 0.000000e+000
      outer loop
         vertex 5.009866e-001 0.000000e+000 9.686047e-001
         vertex 5.088564e-001 0.000000e+000 1.093691e+000
         vertex 0.000000e+000 0.000000e+000 2.000000e+000
      endloop
   endfacet
   facet normal 0.000000e+000 -1.000000e+000 0.000000e+000
      outer loop
         vertex 0.000000e+000 0.000000e+000 2.000000e+000
         vertex 5.088564e-001 0.000000e+000 1.093691e+000
         vertex 5.475865e-001 0.000000e+000 1.212890e+000
      endloop
   endfacet
   facet normal 0.000000e+000 -1.000000e+000 0.000000e+000
      outer loop
         vertex 0.000000e+000 0.000000e+000 2.000000e+000
         vertex 5.475865e-001 0.000000e+000 1.212890e+000
         vertex 6.147434e-001 0.000000e+000 1.318712e+000
      endloop
   endfacet
   facet normal 0.000000e+000 -1.000000e+000 0.000000e+000
      outer loop
         vertex 6.147434e-001 0.000000e+000 1.318712e+000
         vertex 7.061074e-001 0.000000e+000 1.404508e+000
         vertex 0.000000e+000 0.000000e+000 2.000000e+000
      endloop
   endfacet
   facet normal 0.000000e+000 -1.000000e+000 0.000000e+000
      outer loop
         vertex 0.000000e+000 0.000000e+000 2.000000e+000
         vertex 7.061074e-001 0.000000e+000 1.404508e+000
         vertex 8.159377e-001 0.000000e+000 1.464888e+000
      endloop
   endfacet
   facet normal 0.000000e+000 -1.000000e+000 0.000000e+000
      outer loop
         vertex 0.000000e+000 0.000000e+000 2.000000e+000
         vertex 8.159377e-001 0.000000e+000 1.464888e+000
         vertex 1.000000e+000 0.000000e+000 2.000000e+000
      endloop
   endfacet
   facet normal 0.000000e+000 -1.000000e+000 0.000000e+000
      outer loop
         vertex 1.766044e+000 0.000000e+000 1.642788e+000
         vertex 1.642788e+000 0.000000e+000 1.766044e+000
         vertex 1.293893e+000 0.000000e+000 1.404509e+000
      endloop
   endfacet
   facet normal 0.000000e+000 -1.000000e+000 0.000000e+000
      outer loop
         vertex 1.293893e+000 0.000000e+000 1.404508e+000
         vertex 1.642788e+000 0.000000e+000 1.766044e+000
         vertex 1.500000e+000 0.000000e+000 1.866025e+000
      endloop
   endfacet
   facet normal 0.000000e+000 -1.000000e+000 0.000000e+000
      outer loop
         vertex 1.293893e+000 0.000000e+000 1.404508e+000
         vertex 1.500000e+000 0.000000e+000 1.866025e+000
         vertex 1.184062e+000 0.000000e+000 1.464888e+000
      endloop
   endfacet
   facet normal 0.000000e+000 -1.000000e+000 0.000000e+000
      outer loop
         vertex 1.184062e+000 0.000000e+000 1.464888e+000
         vertex 1.500000e+000 0.000000e+000 1.866025e+000
         vertex 1.342020e+000 0.000000e+000 1.939693e+000
      endloop
   endfacet
   facet normal 0.000000e+000 -1.000000e+000 0.000000e+000
      outer loop
         vertex 1.184062e+000 0.000000e+000 1.464888e+000
         vertex 1.342020e+000 0.000000e+000 1.939693e+000
         vertex 1.062667e+000 0.000000e+000 1.496057e+000
      endloop
   endfacet
   facet normal 0.000000e+000 -1.000000e+000 0.000000e+000
      outer loop
         vertex 1.062667e+000 0.000000e+000 1.496057e+000
         vertex 1.342020e+000 0.000000e+000 1.939693e+000
         vertex 1.173648e+000 0.000000e+000 1.984808e+000
      endloop
   endfacet
   facet normal 0.000000e+000 -1.000000e+000 0.000000e+000
      outer loop
         vertex 1.062667e+000 0.000000e+000 1.496057e+000
         vertex 1.173648e+000 0.000000e+000 1.984808e+000
         vertex 1.000000e+000 0.000000e+000 1.500000e+000
      endloop
   endfacet
   facet normal 0.000000e+000 -1.000000e+000 0.000000e+000
      outer loop
         vertex 1.000000e+000 0.000000e+000 1.500000e+000
         vertex 1.173648e+000 0.000000e+000 1.984808e+000
         vertex 1.000000e+000 0.000000e+000 2.000000e+000
      endloop
   endfacet
   facet normal 0.000000e+000 -1.000000e+000 0.000000e+000
      outer loop
         vertex 1.000000e+000 0.000000e+000 1.500000e+000
         vertex 1.000000e+000 0.000000e+000 2.000000e+000
         vertex 9.373333e-001 0.000000e+000 1.496057e+000
      endloop
   endfacet
   facet normal 0.000000e+000 -1.000000e+000 0.000000e+000
      outer loop
         vertex 9.373333e-001 0.000000e+000 1.496057e+000
         vertex 1.000000e+000 0.000000e+000 2.000000e+000
         vertex 8.159377e-001 0.000000e+000 1.464888e+000
      endloop
   endfacet
   facet normal -1.000000e+000 0.000000e+000 1.365924e-016
      outer loop
         vertex 0.000000e+000 2.000000e+000 2.000000e+000
         vertex 0.000000e+000 2.000000e+000 0.000000e+000
         vertex 0.000000e+000 0.000000e+000 2.000000e+000
      endloop
   endfacet
   facet normal -1.000000e+000 0.000000e+000 1.365924e-016
      outer loop
         vertex 0.000000e+000 0.000000e+000 2.000000e+000
         vertex 0.000000e+000 2.000000e+000 0.000000e+000
         vertex 0.000000e+000 0.000000e+000 0.000000e+000
      endloop
   endfacet
   facet normal 0.000000e+000 0.000000e+000 1.000000e+000
      outer loop
         vertex 1.000000e+000 2.000000e+000 2.000000e+000
         vertex 0.000000e+000 2.000000e+000 2.000000e+000
         vertex 1.000000e+000 0.000000e+000 2.000000e+000
      endloop
   endfacet
   facet normal 0.000000e+000 0.000000e+000 1.000000e+000
      outer loop
         vertex 1.000000e+000 0.000000e+000 2.000000e+000
         vertex 0.000000e+000 2.000000e+000 2.000000e+000
         vertex 0.000000e+000 0.000000e+000 2.000000e+000
      endloop
   endfacet
   facet normal 1.000000e+000 0.000000e+000 -6.829619e-017
      outer loop
         vertex 2.000000e+000 0.000000e+000 1.000000e+000
         vertex 2.000000e+000 0.000000e+000 0.000000e+000
         vertex 2.000000e+000 2.000000e+000 1.000000e+000
      endloop
   endfacet
   facet normal 1.000000e+000 0.000000e+000 -6.829619e-017
      outer loop
         vertex 2.000000e+000 2.000000e+000 1.000000e+000
         vertex 2.000000e+000 0.000000e+000 0.000000e+000
         vertex 2.000000e+000 2.000000e+000 0.000000e+000
      endloop
   endfacet
   facet normal 0.000000e+000 0.000000e+000 -1.000000e+000
      outer loop
         vertex 0.000000e+000 2.000000e+000 0.000000e+000
         vertex 2.000000e+000 2.000000e+000 0.000000e+000
         vertex 0.000000e+000 0.000000e+000 0.000000e+000
      endloop
   endfacet
   facet normal 0.000000e+000 0.000000e+000 -1.000000e+000
      outer loop
         vertex 0.000000e+000 0.000000e+000 0.000000e+000
         vertex 2.000000e+000 2.000000e+000 0.000000e+000
         vertex 2.000000e+000 0.000000e+000 0.000000e+000
      endloop
   endfacet
   facet normal -4.185114e-002 0.000000e+000 -9.991239e-001
      outer loop
         vertex 1.062667e+000 0.000000e+000 1.496057e+000
         vertex 1.000000e+000 0.000000e+000 1.500000e+000
         vertex 1.000000e+000 2.000000e+000 1.500000e+000
      endloop
   endfacet
   facet normal 4.185114e-002 0.000000e+000 -9.991239e-001
      outer loop
         vertex 1.000000e+000 2.000000e+000 1.500000e+000
         vertex 1.000000e+000 0.000000e+000 1.500000e+000
         vertex 9.373333e-001 2.000000e+000 1.496057e+000
      endloop
   endfacet
   facet normal 8.370229e-002 0.000000e+000 -9.964908e-001
      outer loop
         vertex 1.000000e+000 0.000000e+000 1.500000e+000
         vertex 9.373333e-001 0.000000e+000 1.496057e+000
         vertex 9.373333e-001 2.000000e+000 1.496057e+000
      endloop
   endfacet
   facet normal 2.077190e-001 0.000000e+000 -9.781886e-001
      outer loop
         vertex 9.373333e-001 2.000000e+000 1.496057e+000
         vertex 9.373333e-001 0.000000e+000 1.496057e+000
         vertex 8.159377e-001 0.000000e+000 1.464888e+000
      endloop
   endfacet
   facet normal 2.892204e-001 0.000000e+000 -9.572625e-001
      outer loop
         vertex 9.373333e-001 2.000000e+000 1.496057e+000
         vertex 8.159377e-001 0.000000e+000 1.464888e+000
         vertex 8.159377e-001 2.000000e+000 1.464888e+000
      endloop
   endfacet
   facet normal 4.444587e-001 0.000000e+000 -8.957993e-001
      outer loop
         vertex 8.159377e-001 2.000000e+000 1.464888e+000
         vertex 8.159377e-001 0.000000e+000 1.464888e+000
         vertex 7.061074e-001 0.000000e+000 1.404509e+000
      endloop
   endfacet
   facet normal 5.181955e-001 0.000000e+000 -8.552622e-001
      outer loop
         vertex 8.159377e-001 2.000000e+000 1.464888e+000
         vertex 7.061074e-001 0.000000e+000 1.404508e+000
         vertex 7.061074e-001 2.000000e+000 1.404509e+000
      endloop
   endfacet
   facet normal 6.532714e-001 0.000000e+000 -7.571238e-001
      outer loop
         vertex 7.061074e-001 2.000000e+000 1.404508e+000
         vertex 7.061074e-001 0.000000e+000 1.404508e+000
         vertex 6.147434e-001 0.000000e+000 1.318712e+000
      endloop
   endfacet
   facet normal 7.146105e-001 0.000000e+000 -6.995226e-001
      outer loop
         vertex 7.061074e-001 2.000000e+000 1.404508e+000
         vertex 6.147434e-001 0.000000e+000 1.318712e+000
         vertex 6.147434e-001 2.000000e+000 1.318712e+000
      endloop
   endfacet
   facet normal 8.210368e-001 0.000000e+000 -5.708753e-001
      outer loop
         vertex 6.147434e-001 2.000000e+000 1.318712e+000
         vertex 6.147434e-001 0.000000e+000 1.318712e+000
         vertex 5.475865e-001 0.000000e+000 1.212890e+000
      endloop
   endfacet
   facet normal 8.661239e-001 0.000000e+000 -4.998294e-001
      outer loop
         vertex 6.147434e-001 2.000000e+000 1.318712e+000
         vertex 5.475865e-001 0.000000e+000 1.212890e+000
         vertex 5.475865e-001 2.000000e+000 1.212890e+000
      endloop
   endfacet
   facet normal 9.372133e-001 0.000000e+000 -3.487567e-001
      outer loop
         vertex 5.475865e-001 2.000000e+000 1.212890e+000
         vertex 5.475865e-001 0.000000e+000 1.212890e+000
         vertex 5.088564e-001 0.000000e+000 1.093691e+000
      endloop
   endfacet
   facet normal 9.632155e-001 0.000000e+000 -2.687300e-001
      outer loop
         vertex 5.475865e-001 2.000000e+000 1.212890e+000
         vertex 5.088564e-001 0.000000e+000 1.093691e+000
         vertex 5.088564e-001 2.000000e+000 1.093691e+000
      endloop
   endfacet
   facet normal 9.945013e-001 0.000000e+000 -1.047244e-001
      outer loop
         vertex 5.088564e-001 2.000000e+000 1.093691e+000
         vertex 5.088564e-001 0.000000e+000 1.093691e+000
         vertex 5.009866e-001 0.000000e+000 9.686047e-001
      endloop
   endfacet
   facet normal 9.997848e-001 0.000000e+000 -2.074544e-002
      outer loop
         vertex 5.088564e-001 2.000000e+000 1.093691e+000
         vertex 5.009866e-001 0.000000e+000 9.686047e-001
         vertex 5.009866e-001 2.000000e+000 9.686047e-001
      endloop
   endfacet
   facet normal 9.893011e-001 0.000000e+000 1.458881e-001
      outer loop
         vertex 5.009866e-001 2.000000e+000 9.686047e-001
         vertex 5.009866e-001 0.000000e+000 9.686047e-001
         vertex 5.244718e-001 0.000000e+000 8.454914e-001
      endloop
   endfacet
   facet normal 9.735339e-001 0.000000e+000 2.285427e-001
      outer loop
         vertex 5.009866e-001 2.000000e+000 9.686047e-001
         vertex 5.244718e-001 0.000000e+000 8.454915e-001
         vertex 5.244718e-001 2.000000e+000 8.454914e-001
      endloop
   endfacet
   facet normal 9.219395e-001 0.000000e+000 3.873339e-001
      outer loop
         vertex 5.244718e-001 2.000000e+000 8.454915e-001
         vertex 5.244718e-001 0.000000e+000 8.454915e-001
         vertex 5.778360e-001 0.000000e+000 7.320866e-001
      endloop
   endfacet
   facet normal 8.861123e-001 0.000000e+000 4.634706e-001
      outer loop
         vertex 5.244718e-001 2.000000e+000 8.454915e-001
         vertex 5.778360e-001 0.000000e+000 7.320866e-001
         vertex 5.778360e-001 2.000000e+000 7.320866e-001
      endloop
   endfacet
   facet normal 7.966490e-001 0.000000e+000 6.044422e-001
      outer loop
         vertex 5.778360e-001 2.000000e+000 7.320866e-001
         vertex 5.778360e-001 0.000000e+000 7.320866e-001
         vertex 6.577264e-001 0.000000e+000 6.355157e-001
      endloop
   endfacet
   facet normal 7.430130e-001 0.000000e+000 6.692770e-001
      outer loop
         vertex 5.778360e-001 2.000000e+000 7.320866e-001
         vertex 6.577264e-001 0.000000e+000 6.355157e-001
         vertex 6.577264e-001 2.000000e+000 6.355157e-001
      endloop
   endfacet
   facet normal 6.213022e-001 0.000000e+000 7.835710e-001
      outer loop
         vertex 6.577264e-001 2.000000e+000 6.355157e-001
         vertex 6.577264e-001 0.000000e+000 6.355157e-001
         vertex 7.591231e-001 0.000000e+000 5.618466e-001
      endloop
   endfacet
   facet normal 5.532275e-001 0.000000e+000 8.330302e-001
      outer loop
         vertex 6.577264e-001 2.000000e+000 6.355157e-001
         vertex 7.591231e-001 0.000000e+000 5.618466e-001
         vertex 7.591231e-001 2.000000e+000 5.618466e-001
      endloop
   endfacet
   facet normal 4.069166e-001 0.000000e+000 9.134653e-001
      outer loop
         vertex 7.591231e-001 2.000000e+000 5.618466e-001
         vertex 7.591231e-001 0.000000e+000 5.618466e-001
         vertex 8.756550e-001 0.000000e+000 5.157084e-001
      endloop
   endfacet
   facet normal 3.286806e-001 0.000000e+000 9.444411e-001
      outer loop
         vertex 7.591231e-001 2.000000e+000 5.618466e-001
         vertex 8.756550e-001 0.000000e+000 5.157084e-001
         vertex 8.756550e-001 2.000000e+000 5.157084e-001
      endloop
   endfacet
   facet normal 1.669630e-001 0.000000e+000 9.859632e-001
      outer loop
         vertex 8.756550e-001 2.000000e+000 5.157084e-001
         vertex 8.756550e-001 0.000000e+000 5.157084e-001
         vertex 1.000000e+000 0.000000e+000 5.000000e-001
      endloop
   endfacet
   facet normal 8.348151e-002 0.000000e+000 9.965093e-001
      outer loop
         vertex 8.756550e-001 2.000000e+000 5.157084e-001
         vertex 1.000000e+000 0.000000e+000 5.000000e-001
         vertex 1.000000e+000 2.000000e+000 5.000000e-001
      endloop
   endfacet
   facet normal -8.348151e-002 0.000000e+000 9.965093e-001
      outer loop
         vertex 1.000000e+000 2.000000e+000 5.000000e-001
         vertex 1.000000e+000 0.000000e+000 5.000000e-001
         vertex 1.124345e+000 0.000000e+000 5.157084e-001
      endloop
   endfacet
   facet normal -1.669630e-001 0.000000e+000 9.859632e-001
      outer loop
         vertex 1.000000e+000 2.000000e+000 5.000000e-001
         vertex 1.124345e+000 0.000000e+000 5.157084e-001
         vertex 1.124345e+000 2.000000e+000 5.157084e-001
      endloop
   endfacet
   facet normal -3.286806e-001 0.000000e+000 9.444411e-001
      outer loop
         vertex 1.124345e+000 2.000000e+000 5.157084e-001
         vertex 1.124345e+000 0.000000e+000 5.157084e-001
         vertex 1.240877e+000 0.000000e+000 5.618466e-001
      endloop
   endfacet
   facet normal -4.069166e-001 0.000000e+000 9.134653e-001
      outer loop
         vertex 1.124345e+000 2.000000e+000 5.157084e-001
         vertex 1.240877e+000 0.000000e+000 5.618466e-001
         vertex 1.240877e+000 2.000000e+000 5.618466e-001
      endloop
   endfacet
   facet normal -5.532275e-001 0.000000e+000 8.330302e-001
      outer loop
         vertex 1.240877e+000 2.000000e+000 5.618466e-001
         vertex 1.240877e+000 0.000000e+000 5.618466e-001
         vertex 1.342274e+000 0.000000e+000 6.355157e-001
      endloop
   endfacet
   facet normal -6.213022e-001 0.000000e+000 7.835710e-001
      outer loop
         vertex 1.240877e+000 2.000000e+000 5.618466e-001
         vertex 1.342274e+000 0.000000e+000 6.355157e-001
         vertex 1.342274e+000 2.000000e+000 6.355157e-001
      endloop
   endfacet
   facet normal -7.430130e-001 0.000000e+000 6.692770e-001
      outer loop
         vertex 1.342274e+000 2.000000e+000 6.355157e-001
         vertex 1.342274e+000 0.000000e+000 6.355157e-001
         vertex 1.422164e+000 0.000000e+000 7.320866e-001
      endloop
   endfacet
   facet normal -7.966490e-001 0.000000e+000 6.044422e-001
      outer loop
         vertex 1.342274e+000 2.000000e+000 6.355157e-001
         vertex 1.422164e+000 0.000000e+000 7.320866e-001
         vertex 1.422164e+000 2.000000e+000 7.320866e-001
      endloop
   endfacet
   facet normal -8.861123e-001 0.000000e+000 4.634706e-001
      outer loop
         vertex 1.422164e+000 2.000000e+000 7.320866e-001
         vertex 1.422164e+000 0.000000e+000 7.320866e-001
         vertex 1.475528e+000 0.000000e+000 8.454914e-001
      endloop
   endfacet
   facet normal -9.219395e-001 0.000000e+000 3.873339e-001
      outer loop
         vertex 1.422164e+000 2.000000e+000 7.320866e-001
         vertex 1.475528e+000 0.000000e+000 8.454915e-001
         vertex 1.475528e+000 2.000000e+000 8.454914e-001
      endloop
   endfacet
   facet normal -9.735339e-001 0.000000e+000 2.285427e-001
      outer loop
         vertex 1.475528e+000 2.000000e+000 8.454915e-001
         vertex 1.475528e+000 0.000000e+000 8.454915e-001
         vertex 1.499013e+000 0.000000e+000 9.686047e-001
      endloop
   endfacet
   facet normal -9.893011e-001 0.000000e+000 1.458881e-001
      outer loop
         vertex 1.475528e+000 2.000000e+000 8.454915e-001
         vertex 1.499013e+000 0.000000e+000 9.686047e-001
         vertex 1.499013e+000 2.000000e+000 9.686047e-001
      endloop
   endfacet
   facet normal -9.997848e-001 0.000000e+000 -2.074544e-002
      outer loop
         vertex 1.499013e+000 2.000000e+000 9.686047e-001
         vertex 1.499013e+000 0.000000e+000 9.686047e-001
         vertex 1.491144e+000 0.000000e+000 1.093691e+000
      endloop
   endfacet
   facet normal -9.945013e-001 0.000000e+000 -1.047244e-001
      outer loop
         vertex 1.499013e+000 2.000000e+000 9.686047e-001
         vertex 1.491144e+000 0.000000e+000 1.093691e+000
         vertex 1.491144e+000 2.000000e+000 1.093691e+000
      endloop
   endfacet
   facet normal -9.632155e-001 0.000000e+000 -2.687300e-001
      outer loop
         vertex 1.491144e+000 2.000000e+000 1.093691e+000
         vertex 1.491144e+000 0.000000e+000 1.093691e+000
         vertex 1.452414e+000 0.000000e+000 1.212890e+000
      endloop
   endfacet
   facet normal -9.372133e-001 0.000000e+000 -3.487567e-001
      outer loop
         vertex 1.491144e+000 2.000000e+000 1.093691e+000
         vertex 1.452414e+000 0.000000e+000 1.212890e+000
         vertex 1.452414e+000 2.000000e+000 1.212890e+000
      endloop
   endfacet
   facet normal -8.661239e-001 0.000000e+000 -4.998294e-001
      outer loop
         vertex 1.452414e+000 2.000000e+000 1.212890e+000
         vertex 1.452414e+000 0.000000e+000 1.212890e+000
         vertex 1.385257e+000 0.000000e+000 1.318712e+000
      endloop
   endfacet
   facet normal -8.210368e-001 0.000000e+000 -5.708753e-001
      outer loop
         vertex 1.452414e+000 2.000000e+000 1.212890e+000
         vertex 1.385257e+000 0.000000e+000 1.318712e+000
         vertex 1.385257e+000 2.000000e+000 1.318712e+000
      endloop
   endfacet
   facet normal -7.146105e-001 0.000000e+000 -6.995226e-001
      outer loop
         vertex 1.385257e+000 2.000000e+000 1.318712e+000
         vertex 1.385257e+000 0.000000e+000 1.318712e+000
         vertex 1.293893e+000 0.000000e+000 1.404509e+000
      endloop
   endfacet
   facet normal -6.532714e-001 0.000000e+000 -7.571238e-001
      outer loop
         vertex 1.385257e+000 2.000000e+000 1.318712e+000
         vertex 1.293893e+000 0.000000e+000 1.404508e+000
         vertex 1.293893e+000 2.000000e+000 1.404509e+000
      endloop
   endfacet
   facet normal -5.181955e-001 0.000000e+000 -8.552622e-001
      outer loop
         vertex 1.293893e+000 2.000000e+000 1.404508e+000
         vertex 1.293893e+000 0.000000e+000 1.404508e+000
         vertex 1.184062e+000 0.000000e+000 1.464888e+000
      endloop
   endfacet
   facet normal -4.444587e-001 0.000000e+000 -8.957993e-001
      outer loop
         vertex 1.293893e+000 2.000000e+000 1.404508e+000
         vertex 1.184062e+000 0.000000e+000 1.464888e+000
         vertex 1.184062e+000 2.000000e+000 1.464888e+000
      endloop
   endfacet
   facet normal -2.892204e-001 0.000000e+000 -9.572625e-001
      outer loop
         vertex 1.184062e+000 2.000000e+000 1.464888e+000
         vertex 1.184062e+000 0.000000e+000 1.464888e+000
         vertex 1.062667e+000 0.000000e+000 1.496057e+000
      endloop
   endfacet
   facet normal -2.077190e-001 0.000000e+000 -9.781886e-001
      outer loop
         vertex 1.184062e+000 2.000000e+000 1.464888e+000
         vertex 1.062667e+000 0.000000e+000 1.496057e+000
         vertex 1.062667e+000 2.000000e+000 1.496057e+000
      endloop
   endfacet
   facet normal -8.370229e-002 0.000000e+000 -9.964908e-001
      outer loop
         vertex 1.062667e+000 2.000000e+000 1.496057e+000
         vertex 1.062667e+000 0.000000e+000 1.496057e+000
         vertex 1.000000e+000 2.000000e+000 1.500000e+000
      endloop
   endfacet
   facet normal 5.807914e-002 0.000000e+000 9.983120e-001
      outer loop
         vertex 1.000000e+000 2.000000e+000 2.000000e+000
         vertex 1.000000e+000 0.000000e+000 2.000000e+000
         vertex 1.173648e+000 0.000000e+000 1.984808e+000
      endloop
   endfacet
   facet normal 1.161583e-001 0.000000e+000 9.932307e-001
      outer loop
         vertex 1.000000e+000 2.000000e+000 2.000000e+000
         vertex 1.173648e+000 0.000000e+000 1.984808e+000
         vertex 1.173648e+000 2.000000e+000 1.984808e+000
      endloop
   endfacet
   facet normal 2.305519e-001 0.000000e+000 9.730600e-001
      outer loop
         vertex 1.173648e+000 2.000000e+000 1.984808e+000
         vertex 1.173648e+000 0.000000e+000 1.984808e+000
         vertex 1.342020e+000 0.000000e+000 1.939693e+000
      endloop
   endfacet
   facet normal 2.868663e-001 0.000000e+000 9.579706e-001
      outer loop
         vertex 1.173648e+000 2.000000e+000 1.984808e+000
         vertex 1.342020e+000 0.000000e+000 1.939693e+000
         vertex 1.342020e+000 2.000000e+000 1.939693e+000
      endloop
   endfacet
   facet normal 3.960194e-001 0.000000e+000 9.182422e-001
      outer loop
         vertex 1.342020e+000 2.000000e+000 1.939693e+000
         vertex 1.342020e+000 0.000000e+000 1.939693e+000
         vertex 1.500000e+000 0.000000e+000 1.866025e+000
      endloop
   endfacet
   facet normal 4.488580e-001 0.000000e+000 8.936031e-001
      outer loop
         vertex 1.342020e+000 2.000000e+000 1.939693e+000
         vertex 1.500000e+000 0.000000e+000 1.866025e+000
         vertex 1.500000e+000 2.000000e+000 1.866025e+000
      endloop
   endfacet
   facet normal 5.494540e-001 0.000000e+000 8.355240e-001
      outer loop
         vertex 1.500000e+000 2.000000e+000 1.866025e+000
         vertex 1.500000e+000 0.000000e+000 1.866025e+000
         vertex 1.642788e+000 0.000000e+000 1.766044e+000
      endloop
   endfacet
   facet normal 5.972114e-001 0.000000e+000 8.020838e-001
      outer loop
         vertex 1.500000e+000 2.000000e+000 1.866025e+000
         vertex 1.642788e+000 0.000000e+000 1.766044e+000
         vertex 1.642788e+000 2.000000e+000 1.766044e+000
      endloop
   endfacet
   facet normal 6.861938e-001 0.000000e+000 7.274188e-001
      outer loop
         vertex 1.642788e+000 2.000000e+000 1.766044e+000
         vertex 1.642788e+000 0.000000e+000 1.766044e+000
         vertex 1.766044e+000 0.000000e+000 1.642788e+000
      endloop
   endfacet
   facet normal 7.274188e-001 0.000000e+000 6.861938e-001
      outer loop
         vertex 1.642788e+000 2.000000e+000 1.766044e+000
         vertex 1.766044e+000 0.000000e+000 1.642788e+000
         vertex 1.766044e+000 2.000000e+000 1.642788e+000
      endloop
   endfacet
   facet normal 8.020838e-001 0.000000e+000 5.972114e-001
      outer loop
         vertex 1.766044e+000 2.000000e+000 1.642788e+000
         vertex 1.766044e+000 0.000000e+000 1.642788e+000
         vertex 1.866025e+000 0.000000e+000 1.500000e+000
      endloop
   endfacet
   facet normal 8.355240e-001 0.000000e+000 5.494540e-001
      outer loop
         vertex 1.766044e+000 2.000000e+000 1.642788e+000
         vertex 1.866025e+000 0.000000e+000 1.500000e+000
         vertex 1.866025e+000 2.000000e+000 1.500000e+000
      endloop
   endfacet
   facet normal 8.936031e-001 0.000000e+000 4.488580e-001
      outer loop
         vertex 1.866025e+000 2.000000e+000 1.500000e+000
         vertex 1.866025e+000 0.000000e+000 1.500000e+000
         vertex 1.939693e+000 0.000000e+000 1.342020e+000
      endloop
   endfacet
   facet normal 9.182422e-001 0.000000e+000 3.960193e-001
      outer loop
         vertex 1.866025e+000 2.000000e+000 1.500000e+000
         vertex 1.939693e+000 0.000000e+000 1.342020e+000
         vertex 1.939693e+000 2.000000e+000 1.342020e+000
      endloop
   endfacet
   facet normal 9.579706e-001 0.000000e+000 2.868663e-001
      outer loop
         vertex 1.939693e+000 2.000000e+000 1.342020e+000
         vertex 1.939693e+000 0.000000e+000 1.342020e+000
         vertex 1.984808e+000 0.000000e+000 1.173648e+000
      endloop
   endfacet
   facet normal 9.730600e-001 0.000000e+000 2.305519e-001
      outer loop
         vertex 1.939693e+000 2.000000e+000 1.342020e+000
         vertex 1.984808e+000 0.000000e+000 1.173648e+000
         vertex 1.984808e+000 2.000000e+000 1.173648e+000
      endloop
   endfacet
   facet normal 9.932307e-001 0.000000e+000 1.161583e-001
      outer loop
         vertex 1.984808e+000 2.000000e+000 1.173648e+000
         vertex 1.984808e+000 0.000000e+000 1.173648e+000
         vertex 2.000000e+000 0.000000e+000 1.000000e+000
      endloop
   endfacet
   facet normal 9.983120e-001 0.000000e+000 5.807913e-002
      outer loop
         vertex 1.984808e+000 2.000000e+000 1.173648e+000
         vertex 2.000000e+000 0.000000e+000 1.000000e+000
         vertex 2.000000e+000 2.000000e+000 1.000000e+000
      endloop
   endfacet
endsolid